# xmcd
#
# Track frame offsets:
#	150
#	35898
#	63412
#	87942
#	106547
#	126112
#	171777
#	188990
#	224309
#
# Disc length: 3416 seconds
#
# Revision: 0
# Processed by: cddbd v1.5.2PL0 Copyright (c) Steve Scherf et al.
# Submitted via: audiograbber 1.83.01
#
DISCID=7a0d5609
DTITLE=Grateful Dead - 89-05-06 Frost Amphitheatre, Palo Alto CA
DYEAR=1900
DGENRE=
TTITLE0=Drums
TTITLE1=Space
TTITLE2=I Will Take You Home
TTITLE3=The Wheel
TTITLE4=I Need A Miracle
TTITLE5=Wharf Rat
TTITLE6=Around and Around
TTITLE7=Not Fade Away
TTITLE8=Black Muddy River
EXTD=
EXTT0=
EXTT1=
EXTT2=
EXTT3=
EXTT4=
EXTT5=
EXTT6=
EXTT7=
EXTT8=
PLAYORDER=
